ffmpeg started on 2026-01-18 at 19:58:49
Report written to "C:\Dev\OSPanel\domains\Java-AT\modules\ffmpeg\FFMetrics\reports\ssim_report-6.txt"
Log level: 32
Command line:
ffmpeg -hide_banner -nostdin -r 24000/1001 -i "F:\\Convert\\files\\[DC] Make Heroine ga Oosugiru - 07_Telegram_HEVC(152).mkv" -r 24000/1001 -i "F:\\Convert\\files\\[DC] Make Heroine ga Oosugiru - 07_Telegram.mp4" -lavfi "[0:v]settb=AVTB,setpts=PTS-STARTPTS,format=pix_fmts=yuv420p10le,fps=24000/1001,scale=1920:1080:flags=lanczos:param0=3:out_range=limited:out_color_matrix=bt709:out_chroma_loc=left,setsar=1/1,setdar=(1920/1080)*(1/1),colorspace=format=yuv420p10:range=tv:primaries=bt709:trc=bt709:space=bt709:fast=0[main];[1:v]settb=AVTB,setpts=PTS-STARTPTS,format=pix_fmts=yuv420p,fps=24000/1001,scale=1920:1080:flags=lanczos:param0=3:out_range=limited:out_color_matrix=bt709:out_chroma_loc=left,setsar=1.000,setdar=1.778,colorspace=format=yuv420p:range=tv:primaries=bt709:trc=bt709:space=bt709:fast=0[ref];[main][ref]ssim=eof_action=endall:stats_file='C\\:/Dev/OSPanel/domains/Java-AT/modules/ffmpeg/FFMetrics/logs/ssim_logfile-6.txt'" -f null -
Input #0, matroska,webm, from 'F:\Convert\files\[DC] Make Heroine ga Oosugiru - 07_Telegram_HEVC(152).mkv':
  Metadata:
    COMPATIBLE_BRANDS: isomiso2avc1mp41
    MAJOR_BRAND     : isom
    MINOR_VERSION   : 512
    ENCODER         : Lavf61.7.100
  Duration: 00:24:06.79, start: -0.021000, bitrate: 980 kb/s
  Stream #0:0: Video: hevc (Main 10), yuv420p10le(tv, bt709, progressive), 1920x1080 [SAR 1:1 DAR 16:9], 23.98 fps, 23.98 tbr, 1k tbn (default)
      Metadata:
        HANDLER_NAME    : VideoHandler
        VENDOR_ID       : [0][0][0][0]
        ENCODER         : Lavc61.19.100 libx265
        BPS             : 782910
        DURATION        : 00:24:06.569708333
        NUMBER_OF_FRAMES: 34683
        NUMBER_OF_BYTES : 141566824
        _STATISTICS_WRITING_APP: mkvpropedit v94.0 ('Initiate') 64-bit
        _STATISTICS_WRITING_DATE_UTC: 2026-01-17 16:36:25
        _STATISTICS_TAGS: BPS DURATION NUMBER_OF_FRAMES NUMBER_OF_BYTES
  Stream #0:1: Audio: aac (LC), 48000 Hz, stereo, fltp (default)
      Metadata:
        HANDLER_NAME    : SoundHandler
        VENDOR_ID       : [0][0][0][0]
        ENCODER         : Lavc61.19.100 aac
        BPS             : 193194
        DURATION        : 00:24:06.784000000
        NUMBER_OF_FRAMES: 67819
        NUMBER_OF_BYTES : 34938755
        _STATISTICS_WRITING_APP: mkvpropedit v94.0 ('Initiate') 64-bit
        _STATISTICS_WRITING_DATE_UTC: 2026-01-17 16:36:25
        _STATISTICS_TAGS: BPS DURATION NUMBER_OF_FRAMES NUMBER_OF_BYTES
Input #1, mov,mp4,m4a,3gp,3g2,mj2, from 'F:\Convert\files\[DC] Make Heroine ga Oosugiru - 07_Telegram.mp4':
  Metadata:
    major_brand     : isom
    minor_version   : 512
    compatible_brands: isomiso2avc1mp41
    encoder         : Lavf60.16.100
  Duration: 00:24:06.74, start: 0.000000, bitrate: 3764 kb/s
  Stream #1:0[0x1](und): Video: h264 (High) (avc1 / 0x31637661), yuv420p(tv, bt709, progressive), 1920x1080 [SAR 1:1 DAR 16:9], 3616 kb/s, 23.98 fps, 23.98 tbr, 24k tbn (default)
      Metadata:
        handler_name    : VideoHandler
        vendor_id       : [0][0][0][0]
        encoder         : Lavc60.31.102 h264_qsv
  Stream #1:1[0x2](und): Audio: aac (HE-AACv2) (mp4a / 0x6134706D), 48000 Hz, stereo, fltp, 144 kb/s (default)
      Metadata:
        handler_name    : SoundHandler
        vendor_id       : [0][0][0][0]
Stream mapping:
  Stream #0:0 (hevc) -> settb:default
  Stream #1:0 (h264) -> settb:default
  ssim:default -> Stream #0:0 (wrapped_avframe)
  Stream #0:1 -> #0:1 (aac (native) -> pcm_s16le (native))
Output #0, null, to 'pipe:':
  Metadata:
    COMPATIBLE_BRANDS: isomiso2avc1mp41
    MAJOR_BRAND     : isom
    MINOR_VERSION   : 512
    encoder         : Lavf61.7.100
  Stream #0:0: Video: wrapped_avframe, yuv420p10le(tv, bt709, progressive), 1920x1080 [SAR 1:1 DAR 16:9], q=2-31, 200 kb/s, 23.98 fps, 23.98 tbn
      Metadata:
        encoder         : Lavc61.19.100 wrapped_avframe
  Stream #0:1: Audio: pcm_s16le, 48000 Hz, stereo, s16, 1536 kb/s (default)
      Metadata:
        HANDLER_NAME    : SoundHandler
        VENDOR_ID       : [0][0][0][0]
        _STATISTICS_TAGS: BPS DURATION NUMBER_OF_FRAMES NUMBER_OF_BYTES
        BPS             : 193194
        DURATION        : 00:24:06.784000000
        NUMBER_OF_FRAMES: 67819
        NUMBER_OF_BYTES : 34938755
        _STATISTICS_WRITING_APP: mkvpropedit v94.0 ('Initiate') 64-bit
        _STATISTICS_WRITING_DATE_UTC: 2026-01-17 16:36:25
        encoder         : Lavc61.19.100 pcm_s16le
frame=  122 fps=0.0 q=-0.0 size=N/A time=00:00:05.08 bitrate=N/A speed=10.1x    frame=  326 fps=317 q=-0.0 size=N/A time=00:00:13.59 bitrate=N/A speed=13.2x    frame=  526 fps=341 q=-0.0 size=N/A time=00:00:21.93 bitrate=N/A speed=14.2x    frame=  728 fps=355 q=-0.0 size=N/A time=00:00:30.36 bitrate=N/A speed=14.8x    frame=  914 fps=354 q=-0.0 size=N/A time=00:00:38.12 bitrate=N/A speed=14.8x    frame= 1066 fps=345 q=-0.0 size=N/A time=00:00:44.46 bitrate=N/A speed=14.4x    frame= 1232 fps=342 q=-0.0 size=N/A time=00:00:51.38 bitrate=N/A speed=14.3x    frame= 1400 fps=340 q=-0.0 size=N/A time=00:00:58.39 bitrate=N/A speed=14.2x    frame= 1551 fps=335 q=-0.0 size=N/A time=00:01:04.68 bitrate=N/A speed=  14x    frame= 1717 fps=333 q=-0.0 size=N/A time=00:01:11.61 bitrate=N/A speed=13.9x    frame= 1887 fps=333 q=-0.0 size=N/A time=00:01:18.70 bitrate=N/A speed=13.9x    frame= 2050 fps=332 q=-0.0 size=N/A time=00:01:25.50 bitrate=N/A speed=13.8x    frame= 2168 fps=323 q=-0.0 size=N/A time=00:01:30.42 bitrate=N/A speed=13.5x    frame= 2333 fps=323 q=-0.0 size=N/A time=00:01:37.30 bitrate=N/A speed=13.5x    frame= 2471 fps=320 q=-0.0 size=N/A time=00:01:43.06 bitrate=N/A speed=13.3x    frame= 2613 fps=317 q=-0.0 size=N/A time=00:01:48.98 bitrate=N/A speed=13.2x    frame= 2792 fps=319 q=-0.0 size=N/A time=00:01:56.44 bitrate=N/A speed=13.3x    frame= 2970 fps=320 q=-0.0 size=N/A time=00:02:03.87 bitrate=N/A speed=13.4x    frame= 3160 fps=323 q=-0.0 size=N/A time=00:02:11.79 bitrate=N/A speed=13.5x    frame= 3362 fps=326 q=-0.0 size=N/A time=00:02:20.22 bitrate=N/A speed=13.6x    frame= 3563 fps=329 q=-0.0 size=N/A time=00:02:28.60 bitrate=N/A speed=13.7x    frame= 3753 fps=331 q=-0.0 size=N/A time=00:02:36.53 bitrate=N/A speed=13.8x    frame= 3962 fps=334 q=-0.0 size=N/A time=00:02:45.24 bitrate=N/A speed=13.9x    frame= 4157 fps=336 q=-0.0 size=N/A time=00:02:53.38 bitrate=N/A speed=  14x    frame= 4353 fps=338 q=-0.0 size=N/A time=00:03:01.55 bitrate=N/A speed=14.1x    frame= 4550 fps=340 q=-0.0 size=N/A time=00:03:09.77 bitrate=N/A speed=14.2x    frame= 4754 fps=341 q=-0.0 size=N/A time=00:03:18.28 bitrate=N/A speed=14.2x    frame= 4949 fps=343 q=-0.0 size=N/A time=00:03:26.41 bitrate=N/A speed=14.3x    frame= 5142 fps=344 q=-0.0 size=N/A time=00:03:34.46 bitrate=N/A speed=14.4x    frame= 5334 fps=345 q=-0.0 size=N/A time=00:03:42.47 bitrate=N/A speed=14.4x    frame= 5531 fps=346 q=-0.0 size=N/A time=00:03:50.68 bitrate=N/A speed=14.4x    frame= 5729 fps=347 q=-0.0 size=N/A time=00:03:58.94 bitrate=N/A speed=14.5x    frame= 5915 fps=348 q=-0.0 size=N/A time=00:04:06.70 bitrate=N/A speed=14.5x    frame= 6119 fps=349 q=-0.0 size=N/A time=00:04:15.21 bitrate=N/A speed=14.6x    frame= 6313 fps=350 q=-0.0 size=N/A time=00:04:23.30 bitrate=N/A speed=14.6x    frame= 6513 fps=351 q=-0.0 size=N/A time=00:04:31.64 bitrate=N/A speed=14.6x    frame= 6701 fps=351 q=-0.0 size=N/A time=00:04:39.48 bitrate=N/A speed=14.7x    frame= 6901 fps=352 q=-0.0 size=N/A time=00:04:47.82 bitrate=N/A speed=14.7x    frame= 7096 fps=353 q=-0.0 size=N/A time=00:04:55.96 bitrate=N/A speed=14.7x    frame= 7293 fps=354 q=-0.0 size=N/A time=00:05:04.17 bitrate=N/A speed=14.8x    frame= 7480 fps=354 q=-0.0 size=N/A time=00:05:11.97 bitrate=N/A speed=14.8x    frame= 7663 fps=354 q=-0.0 size=N/A time=00:05:19.61 bitrate=N/A speed=14.8x    frame= 7862 fps=355 q=-0.0 size=N/A time=00:05:27.91 bitrate=N/A speed=14.8x    frame= 8055 fps=355 q=-0.0 size=N/A time=00:05:35.96 bitrate=N/A speed=14.8x    frame= 8244 fps=355 q=-0.0 size=N/A time=00:05:43.84 bitrate=N/A speed=14.8x    frame= 8440 fps=356 q=-0.0 size=N/A time=00:05:52.01 bitrate=N/A speed=14.8x    frame= 8629 fps=356 q=-0.0 size=N/A time=00:05:59.90 bitrate=N/A speed=14.8x    frame= 8827 fps=356 q=-0.0 size=N/A time=00:06:08.15 bitrate=N/A speed=14.9x    frame= 9020 fps=357 q=-0.0 size=N/A time=00:06:16.20 bitrate=N/A speed=14.9x    frame= 9214 fps=357 q=-0.0 size=N/A time=00:06:24.30 bitrate=N/A speed=14.9x    frame= 9410 fps=358 q=-0.0 size=N/A time=00:06:32.47 bitrate=N/A speed=14.9x    frame= 9610 fps=358 q=-0.0 size=N/A time=00:06:40.81 bitrate=N/A speed=14.9x    frame= 9805 fps=359 q=-0.0 size=N/A time=00:06:48.95 bitrate=N/A speed=  15x    frame=10000 fps=359 q=-0.0 size=N/A time=00:06:57.08 bitrate=N/A speed=  15x    frame=10188 fps=359 q=-0.0 size=N/A time=00:07:04.92 bitrate=N/A speed=  15x    frame=10382 fps=360 q=-0.0 size=N/A time=00:07:13.01 bitrate=N/A speed=  15x    frame=10578 fps=360 q=-0.0 size=N/A time=00:07:21.19 bitrate=N/A speed=  15x    frame=10764 fps=360 q=-0.0 size=N/A time=00:07:28.94 bitrate=N/A speed=  15x    frame=10956 fps=360 q=-0.0 size=N/A time=00:07:36.95 bitrate=N/A speed=  15x    frame=11144 fps=360 q=-0.0 size=N/A time=00:07:44.79 bitrate=N/A speed=  15x    frame=11333 fps=360 q=-0.0 size=N/A time=00:07:52.68 bitrate=N/A speed=  15x    frame=11533 fps=361 q=-0.0 size=N/A time=00:08:01.02 bitrate=N/A speed=  15x    frame=11727 fps=361 q=-0.0 size=N/A time=00:08:09.11 bitrate=N/A speed=15.1x    frame=11920 fps=361 q=-0.0 size=N/A time=00:08:17.16 bitrate=N/A speed=15.1x    frame=12116 fps=361 q=-0.0 size=N/A time=00:08:25.33 bitrate=N/A speed=15.1x    frame=12312 fps=362 q=-0.0 size=N/A time=00:08:33.51 bitrate=N/A speed=15.1x    frame=12511 fps=362 q=-0.0 size=N/A time=00:08:41.81 bitrate=N/A speed=15.1x    frame=12698 fps=362 q=-0.0 size=N/A time=00:08:49.61 bitrate=N/A speed=15.1x    frame=12898 fps=362 q=-0.0 size=N/A time=00:08:57.95 bitrate=N/A speed=15.1x    frame=13086 fps=362 q=-0.0 size=N/A time=00:09:05.79 bitrate=N/A speed=15.1x    frame=13263 fps=362 q=-0.0 size=N/A time=00:09:13.17 bitrate=N/A speed=15.1x    frame=13459 fps=362 q=-0.0 size=N/A time=00:09:21.35 bitrate=N/A speed=15.1x    frame=13649 fps=363 q=-0.0 size=N/A time=00:09:29.27 bitrate=N/A speed=15.1x    frame=13842 fps=363 q=-0.0 size=N/A time=00:09:37.32 bitrate=N/A speed=15.1x    frame=14036 fps=363 q=-0.0 size=N/A time=00:09:45.41 bitrate=N/A speed=15.1x    frame=14216 fps=362 q=-0.0 size=N/A time=00:09:52.92 bitrate=N/A speed=15.1x    frame=14409 fps=363 q=-0.0 size=N/A time=00:10:00.97 bitrate=N/A speed=15.1x    frame=14596 fps=363 q=-0.0 size=N/A time=00:10:08.77 bitrate=N/A speed=15.1x    frame=14788 fps=363 q=-0.0 size=N/A time=00:10:16.78 bitrate=N/A speed=15.1x    frame=14986 fps=363 q=-0.0 size=N/A time=00:10:25.04 bitrate=N/A speed=15.1x    frame=15156 fps=363 q=-0.0 size=N/A time=00:10:32.13 bitrate=N/A speed=15.1x    frame=15336 fps=363 q=-0.0 size=N/A time=00:10:39.63 bitrate=N/A speed=15.1x    frame=15525 fps=363 q=-0.0 size=N/A time=00:10:47.52 bitrate=N/A speed=15.1x    frame=15721 fps=363 q=-0.0 size=N/A time=00:10:55.69 bitrate=N/A speed=15.1x    frame=15917 fps=363 q=-0.0 size=N/A time=00:11:03.87 bitrate=N/A speed=15.1x    frame=16111 fps=363 q=-0.0 size=N/A time=00:11:11.96 bitrate=N/A speed=15.1x    frame=16305 fps=363 q=-0.0 size=N/A time=00:11:20.05 bitrate=N/A speed=15.2x    frame=16501 fps=363 q=-0.0 size=N/A time=00:11:28.22 bitrate=N/A speed=15.2x    frame=16690 fps=363 q=-0.0 size=N/A time=00:11:36.11 bitrate=N/A speed=15.2x    frame=16888 fps=364 q=-0.0 size=N/A time=00:11:44.37 bitrate=N/A speed=15.2x    frame=17089 fps=364 q=-0.0 size=N/A time=00:11:52.75 bitrate=N/A speed=15.2x    frame=17290 fps=364 q=-0.0 size=N/A time=00:12:01.13 bitrate=N/A speed=15.2x    frame=17479 fps=364 q=-0.0 size=N/A time=00:12:09.01 bitrate=N/A speed=15.2x    frame=17671 fps=364 q=-0.0 size=N/A time=00:12:17.02 bitrate=N/A speed=15.2x    frame=17867 fps=364 q=-0.0 size=N/A time=00:12:25.20 bitrate=N/A speed=15.2x    frame=18059 fps=365 q=-0.0 size=N/A time=00:12:33.21 bitrate=N/A speed=15.2x    frame=18238 fps=364 q=-0.0 size=N/A time=00:12:40.67 bitrate=N/A speed=15.2x    frame=18432 fps=364 q=-0.0 size=N/A time=00:12:48.76 bitrate=N/A speed=15.2x    frame=18631 fps=365 q=-0.0 size=N/A time=00:12:57.06 bitrate=N/A speed=15.2x    frame=18827 fps=365 q=-0.0 size=N/A time=00:13:05.24 bitrate=N/A speed=15.2x    frame=19021 fps=365 q=-0.0 size=N/A time=00:13:13.33 bitrate=N/A speed=15.2x    frame=19220 fps=365 q=-0.0 size=N/A time=00:13:21.63 bitrate=N/A speed=15.2x    frame=19423 fps=365 q=-0.0 size=N/A time=00:13:30.10 bitrate=N/A speed=15.2x    frame=19628 fps=366 q=-0.0 size=N/A time=00:13:38.65 bitrate=N/A speed=15.2x    frame=19817 fps=366 q=-0.0 size=N/A time=00:13:46.53 bitrate=N/A speed=15.3x    frame=20014 fps=366 q=-0.0 size=N/A time=00:13:54.75 bitrate=N/A speed=15.3x    frame=20215 fps=366 q=-0.0 size=N/A time=00:14:03.13 bitrate=N/A speed=15.3x    frame=20408 fps=366 q=-0.0 size=N/A time=00:14:11.18 bitrate=N/A speed=15.3x    frame=20594 fps=366 q=-0.0 size=N/A time=00:14:18.94 bitrate=N/A speed=15.3x    frame=20780 fps=366 q=-0.0 size=N/A time=00:14:26.69 bitrate=N/A speed=15.3x    frame=20980 fps=366 q=-0.0 size=N/A time=00:14:35.04 bitrate=N/A speed=15.3x    frame=21183 fps=366 q=-0.0 size=N/A time=00:14:43.50 bitrate=N/A speed=15.3x    frame=21380 fps=367 q=-0.0 size=N/A time=00:14:51.72 bitrate=N/A speed=15.3x    frame=21577 fps=367 q=-0.0 size=N/A time=00:14:59.94 bitrate=N/A speed=15.3x    frame=21766 fps=367 q=-0.0 size=N/A time=00:15:07.82 bitrate=N/A speed=15.3x    frame=21974 fps=367 q=-0.0 size=N/A time=00:15:16.49 bitrate=N/A speed=15.3x    frame=22157 fps=367 q=-0.0 size=N/A time=00:15:24.13 bitrate=N/A speed=15.3x    frame=22355 fps=367 q=-0.0 size=N/A time=00:15:32.38 bitrate=N/A speed=15.3x    frame=22551 fps=367 q=-0.0 size=N/A time=00:15:40.56 bitrate=N/A speed=15.3x    frame=22752 fps=367 q=-0.0 size=N/A time=00:15:48.94 bitrate=N/A speed=15.3x    frame=22940 fps=367 q=-0.0 size=N/A time=00:15:56.78 bitrate=N/A speed=15.3x    frame=23135 fps=367 q=-0.0 size=N/A time=00:16:04.92 bitrate=N/A speed=15.3x    frame=23329 fps=368 q=-0.0 size=N/A time=00:16:13.01 bitrate=N/A speed=15.3x    frame=23532 fps=368 q=-0.0 size=N/A time=00:16:21.48 bitrate=N/A speed=15.3x    frame=23733 fps=368 q=-0.0 size=N/A time=00:16:29.86 bitrate=N/A speed=15.3x    frame=23925 fps=368 q=-0.0 size=N/A time=00:16:37.87 bitrate=N/A speed=15.3x    frame=24123 fps=368 q=-0.0 size=N/A time=00:16:46.13 bitrate=N/A speed=15.3x    frame=24319 fps=368 q=-0.0 size=N/A time=00:16:54.30 bitrate=N/A speed=15.4x    frame=24514 fps=368 q=-0.0 size=N/A time=00:17:02.43 bitrate=N/A speed=15.4x    frame=24711 fps=368 q=-0.0 size=N/A time=00:17:10.65 bitrate=N/A speed=15.4x    frame=24904 fps=368 q=-0.0 size=N/A time=00:17:18.70 bitrate=N/A speed=15.4x    frame=25097 fps=368 q=-0.0 size=N/A time=00:17:26.75 bitrate=N/A speed=15.4x    frame=25287 fps=368 q=-0.0 size=N/A time=00:17:34.67 bitrate=N/A speed=15.4x    frame=25483 fps=368 q=-0.0 size=N/A time=00:17:42.85 bitrate=N/A speed=15.4x    frame=25676 fps=369 q=-0.0 size=N/A time=00:17:50.90 bitrate=N/A speed=15.4x    frame=25878 fps=369 q=-0.0 size=N/A time=00:17:59.32 bitrate=N/A speed=15.4x    frame=26072 fps=369 q=-0.0 size=N/A time=00:18:07.41 bitrate=N/A speed=15.4x    frame=26264 fps=369 q=-0.0 size=N/A time=00:18:15.42 bitrate=N/A speed=15.4x    frame=26467 fps=369 q=-0.0 size=N/A time=00:18:23.89 bitrate=N/A speed=15.4x    frame=26663 fps=369 q=-0.0 size=N/A time=00:18:32.06 bitrate=N/A speed=15.4x    frame=26855 fps=369 q=-0.0 size=N/A time=00:18:40.07 bitrate=N/A speed=15.4x    frame=27037 fps=369 q=-0.0 size=N/A time=00:18:47.66 bitrate=N/A speed=15.4x    frame=27218 fps=369 q=-0.0 size=N/A time=00:18:55.21 bitrate=N/A speed=15.4x    frame=27408 fps=369 q=-0.0 size=N/A time=00:19:03.14 bitrate=N/A speed=15.4x    frame=27604 fps=369 q=-0.0 size=N/A time=00:19:11.31 bitrate=N/A speed=15.4x    frame=27792 fps=369 q=-0.0 size=N/A time=00:19:19.15 bitrate=N/A speed=15.4x    frame=27980 fps=369 q=-0.0 size=N/A time=00:19:26.99 bitrate=N/A speed=15.4x    frame=28176 fps=369 q=-0.0 size=N/A time=00:19:35.17 bitrate=N/A speed=15.4x    frame=28371 fps=369 q=-0.0 size=N/A time=00:19:43.30 bitrate=N/A speed=15.4x    frame=28564 fps=369 q=-0.0 size=N/A time=00:19:51.35 bitrate=N/A speed=15.4x    frame=28746 fps=369 q=-0.0 size=N/A time=00:19:58.94 bitrate=N/A speed=15.4x    frame=28923 fps=369 q=-0.0 size=N/A time=00:20:06.33 bitrate=N/A speed=15.4x    frame=29084 fps=368 q=-0.0 size=N/A time=00:20:13.04 bitrate=N/A speed=15.4x    frame=29271 fps=368 q=-0.0 size=N/A time=00:20:20.84 bitrate=N/A speed=15.4x    frame=29446 fps=368 q=-0.0 size=N/A time=00:20:28.14 bitrate=N/A speed=15.4x    frame=29627 fps=368 q=-0.0 size=N/A time=00:20:35.69 bitrate=N/A speed=15.3x    frame=29818 fps=368 q=-0.0 size=N/A time=00:20:43.65 bitrate=N/A speed=15.3x    frame=29989 fps=368 q=-0.0 size=N/A time=00:20:50.79 bitrate=N/A speed=15.3x    frame=30161 fps=368 q=-0.0 size=N/A time=00:20:57.96 bitrate=N/A speed=15.3x    frame=30356 fps=368 q=-0.0 size=N/A time=00:21:06.09 bitrate=N/A speed=15.3x    frame=30558 fps=368 q=-0.0 size=N/A time=00:21:14.52 bitrate=N/A speed=15.3x    frame=30748 fps=368 q=-0.0 size=N/A time=00:21:22.44 bitrate=N/A speed=15.3x    frame=30945 fps=368 q=-0.0 size=N/A time=00:21:30.66 bitrate=N/A speed=15.3x    frame=31135 fps=368 q=-0.0 size=N/A time=00:21:38.58 bitrate=N/A speed=15.3x    frame=31322 fps=368 q=-0.0 size=N/A time=00:21:46.38 bitrate=N/A speed=15.3x    frame=31513 fps=368 q=-0.0 size=N/A time=00:21:54.35 bitrate=N/A speed=15.3x    frame=31705 fps=368 q=-0.0 size=N/A time=00:22:02.36 bitrate=N/A speed=15.3x    frame=31893 fps=368 q=-0.0 size=N/A time=00:22:10.20 bitrate=N/A speed=15.3x    frame=32077 fps=368 q=-0.0 size=N/A time=00:22:17.87 bitrate=N/A speed=15.3x    frame=32273 fps=368 q=-0.0 size=N/A time=00:22:26.05 bitrate=N/A speed=15.3x    frame=32467 fps=368 q=-0.0 size=N/A time=00:22:34.14 bitrate=N/A speed=15.3x    frame=32651 fps=368 q=-0.0 size=N/A time=00:22:41.81 bitrate=N/A speed=15.3x    frame=32813 fps=367 q=-0.0 size=N/A time=00:22:48.57 bitrate=N/A speed=15.3x    frame=32989 fps=367 q=-0.0 size=N/A time=00:22:55.91 bitrate=N/A speed=15.3x    frame=33172 fps=367 q=-0.0 size=N/A time=00:23:03.54 bitrate=N/A speed=15.3x    frame=33347 fps=367 q=-0.0 size=N/A time=00:23:10.84 bitrate=N/A speed=15.3x    frame=33512 fps=367 q=-0.0 size=N/A time=00:23:17.72 bitrate=N/A speed=15.3x    frame=33663 fps=366 q=-0.0 size=N/A time=00:23:24.02 bitrate=N/A speed=15.3x    frame=33806 fps=366 q=-0.0 size=N/A time=00:23:29.99 bitrate=N/A speed=15.3x    frame=33943 fps=365 q=-0.0 size=N/A time=00:23:35.70 bitrate=N/A speed=15.2x    frame=34115 fps=365 q=-0.0 size=N/A time=00:23:42.87 bitrate=N/A speed=15.2x    frame=34271 fps=365 q=-0.0 size=N/A time=00:23:49.38 bitrate=N/A speed=15.2x    frame=34403 fps=364 q=-0.0 size=N/A time=00:23:54.89 bitrate=N/A speed=15.2x    frame=34582 fps=364 q=-0.0 size=N/A time=00:24:02.35 bitrate=N/A speed=15.2x    [Parsed_ssim_16 @ 0000020bf2068780] SSIM Y:0.994164 (22.338904) U:0.993980 (22.203983) V:0.993586 (21.928561) All:0.994037 (22.245353)
[out#0/null @ 0000020be4f63a00] video:14903KiB audio:271276KiB subtitle:0KiB other streams:0KiB global headers:0KiB muxing overhead: unknown
frame=34683 fps=364 q=-0.0 Lsize=N/A time=00:24:06.57 bitrate=N/A speed=15.2x    
